<?xml version="1.0" encoding="UTF-8"?>
<svg xmlns="http://www.w3.org/2000/svg" xmlns:xlink="http://www.w3.org/1999/xlink" width="175pt" height="139pt" viewBox="0 0 175 139" version="1.1">
<g id="surface1">
<path style=" stroke:none;fill-rule:nonzero;fill:rgb(52.156863%,71.372549%,5.882353%);fill-opacity:1;" d="M 139.652344 123.054688 C 139.707031 125.023438 139.871094 126.988281 140 128.953125 C 140.226562 128.9375 140.453125 128.925781 140.675781 128.914062 C 140.574219 126.695312 140.472656 124.480469 140.367188 122.261719 C 140.082031 122.527344 139.644531 122.796875 139.652344 123.054688 Z M 139.652344 123.054688 "/>
<path style=" stroke:none;fill-rule:nonzero;fill:rgb(52.156863%,71.372549%,5.882353%);fill-opacity:1;" d="M 124.546875 71.003906 C 124.75 70.742188 124.953125 70.480469 125.15625 70.21875 C 124.125 69.402344 123.09375 68.585938 122.0625 67.765625 C 121.890625 68.023438 121.714844 68.277344 121.542969 68.535156 C 122.542969 69.359375 123.542969 70.179688 124.546875 71.003906 Z M 124.546875 71.003906 "/>
<path style=" stroke:none;fill-rule:nonzero;fill:rgb(52.156863%,71.372549%,5.882353%);fill-opacity:1;" d="M 164.496094 58.371094 C 167.96875 61.4375 171.441406 64.503906 174.941406 67.59375 C 171.128906 59.839844 165.398438 53.972656 157.746094 49.773438 C 159.085938 49.898438 160.425781 50.027344 161.765625 50.152344 C 161.84375 49.96875 161.917969 49.785156 161.996094 49.597656 C 158.746094 47.855469 155.492188 46.113281 152.136719 44.316406 C 153.40625 44.148438 154.65625 43.984375 156.351562 43.761719 C 151.039062 41.105469 145.734375 40.742188 140.320312 40.886719 C 140.3125 40.652344 140.300781 40.421875 140.289062 40.1875 C 142.261719 39.773438 144.230469 39.359375 146.410156 38.902344 C 141.078125 36.164062 135.546875 36.351562 129.941406 37.082031 C 129.921875 36.886719 129.898438 36.695312 129.878906 36.5 C 132.183594 35.761719 134.488281 35.027344 137.050781 34.210938 C 131.703125 32.863281 127.117188 34.578125 122.464844 36.25 C 123.335938 35.355469 124.277344 34.621094 125.289062 34.007812 C 126.257812 33.417969 127.304688 32.953125 128.617188 32.277344 C 122.730469 32.59375 118.472656 35.46875 114.4375 39.015625 C 115.207031 37.433594 116.15625 36.109375 117.308594 34.996094 C 118.464844 33.878906 119.824219 32.972656 121.320312 31.796875 C 116.019531 33.101562 112.054688 36.089844 108.503906 39.777344 C 108.335938 39.613281 108.171875 39.449219 108.003906 39.285156 C 108.863281 38.058594 109.726562 36.832031 110.984375 35.042969 C 108.863281 36.328125 107.257812 37.246094 105.714844 38.257812 C 104.203125 39.246094 103.132812 41.113281 100.984375 40.785156 C 100.863281 40.5625 100.742188 40.34375 100.621094 40.121094 C 105.03125 37.65625 109.445312 35.191406 114.019531 32.636719 L 107.109375 32.636719 C 107.03125 32.433594 106.949219 32.230469 106.871094 32.023438 C 108.933594 30.972656 110.941406 29.789062 113.074219 28.910156 C 115.191406 28.042969 117.4375 27.488281 119.804688 26.738281 C 117.578125 26.328125 115.574219 25.964844 113.175781 25.523438 C 117.019531 24.167969 120.421875 22.96875 124.3125 21.597656 C 121.90625 21.003906 120.097656 20.558594 118.007812 20.042969 C 122.273438 18.875 126.082031 17.832031 130.429688 16.644531 C 127.726562 15.953125 125.773438 15.453125 123.816406 14.953125 C 123.871094 14.828125 123.925781 14.703125 123.980469 14.578125 C 127.472656 13.871094 130.964844 13.164062 134.914062 12.359375 C 132.375 11.601562 130.425781 11.023438 128.476562 10.4375 C 128.527344 10.199219 128.578125 9.960938 128.625 9.722656 C 132.542969 8.496094 136.5625 9.070312 140.683594 8.988281 C 138.5 8.007812 136.316406 7.03125 134.132812 6.054688 C 134.128906 5.808594 134.121094 5.5625 134.117188 5.316406 C 137.757812 4.84375 141.398438 4.371094 145.066406 3.898438 C 138.644531 1.773438 132.316406 2.175781 125.90625 4.613281 C 126.78125 3.8125 127.65625 3.011719 128.535156 2.210938 L 128.316406 1.742188 C 125.585938 2.816406 122.855469 3.890625 119.867188 5.0625 C 120.699219 3.957031 121.390625 3.035156 122.082031 2.117188 C 121.90625 1.9375 121.726562 1.757812 121.550781 1.578125 C 117.941406 4.601562 114.335938 7.628906 110.410156 10.921875 C 111.542969 9.097656 112.515625 7.535156 113.671875 5.675781 C 108.871094 7.917969 105.933594 11.621094 103.023438 15.355469 C 102.878906 15.246094 102.738281 15.140625 102.597656 15.03125 C 103.632812 13.128906 104.667969 11.226562 105.902344 8.964844 C 102.011719 12.019531 99.976562 15.914062 98.179688 19.980469 C 97.996094 19.886719 97.8125 19.792969 97.632812 19.703125 C 98.167969 17.960938 98.703125 16.222656 99.238281 14.480469 C 99.03125 14.402344 98.820312 14.324219 98.613281 14.246094 C 97.0625 18.28125 95.515625 22.316406 93.964844 26.355469 C 93.863281 26.351562 93.761719 26.347656 93.660156 26.34375 C 93.953125 24.007812 94.242188 21.675781 94.53125 19.339844 C 94.351562 19.292969 94.167969 19.246094 93.984375 19.199219 C 92.84375 23.480469 91.707031 27.761719 90.433594 32.550781 C 90.328125 30.773438 90.25 29.492188 90.144531 27.722656 C 89.453125 29.695312 88.925781 31.191406 88.242188 33.128906 C 87.5625 31.152344 87.0625 29.691406 86.402344 27.753906 C 86.269531 29.554688 86.179688 30.8125 86.089844 32.070312 C 85.371094 30.511719 85.222656 28.949219 84.914062 27.417969 C 84.613281 25.933594 84.226562 24.453125 83.722656 23.03125 C 83.230469 21.636719 82.539062 20.308594 81.855469 18.777344 C 82.222656 21.488281 82.554688 23.929688 82.886719 26.371094 C 82.683594 26.410156 82.480469 26.449219 82.277344 26.484375 C 81.667969 24.375 81.195312 22.214844 80.414062 20.171875 C 79.652344 18.1875 78.570312 16.324219 77.632812 14.410156 L 77.332031 14.578125 C 77.855469 16.316406 78.378906 18.058594 78.902344 19.796875 C 78.730469 19.875 78.554688 19.949219 78.378906 20.027344 C 76.5 15.925781 74.546875 11.878906 70.65625 9.046875 C 71.8125 11.183594 72.875 13.148438 73.9375 15.113281 C 73.789062 15.214844 73.640625 15.3125 73.488281 15.414062 C 70.652344 11.585938 67.648438 7.949219 62.847656 5.667969 C 63.992188 7.507812 64.914062 8.984375 65.835938 10.464844 C 65.679688 10.570312 65.519531 10.671875 65.363281 10.777344 C 62.265625 7.246094 58.9375 4.011719 54.222656 1.820312 C 55.148438 3.085938 55.816406 4 56.539062 4.984375 C 53.507812 3.832031 50.71875 2.769531 47.925781 1.707031 C 47.882812 1.835938 47.839844 1.964844 47.796875 2.089844 C 48.695312 2.890625 49.589844 3.691406 50.578125 4.570312 C 47.230469 3.882812 44.121094 3.039062 40.953125 2.640625 C 37.222656 2.175781 33.300781 3.023438 31.5625 4.226562 C 35.242188 4.230469 38.9375 4.15625 42.882812 6.015625 C 41.191406 6.65625 40.039062 7.023438 38.945312 7.523438 C 37.921875 7.988281 36.957031 8.589844 35.488281 9.390625 C 40.105469 9.082031 44.089844 8.410156 47.953125 9.820312 L 48.058594 10.484375 C 46.109375 11.046875 44.15625 11.609375 41.546875 12.363281 C 45.660156 13.191406 49.160156 13.898438 52.65625 14.605469 L 52.792969 15.015625 C 50.796875 15.492188 48.804688 15.96875 46.808594 16.441406 C 46.769531 16.570312 46.730469 16.699219 46.691406 16.828125 C 50.460938 17.851562 54.234375 18.878906 58.503906 20.039062 C 56.386719 20.574219 54.625 21.019531 52.226562 21.625 C 56.238281 23.03125 59.609375 24.214844 63.398438 25.539062 C 60.96875 25.976562 58.933594 26.34375 56.75 26.738281 C 59.195312 27.519531 61.511719 28.105469 63.699219 29.007812 C 65.816406 29.886719 67.796875 31.09375 69.839844 32.15625 C 69.757812 32.351562 69.679688 32.542969 69.597656 32.738281 L 61.960938 32.738281 C 67.183594 35.074219 71.78125 37.199219 75.683594 40.464844 C 75.539062 40.710938 75.394531 40.953125 75.25 41.199219 C 72.199219 39.242188 69.152344 37.289062 66.101562 35.332031 C 66.050781 35.421875 66 35.515625 65.945312 35.605469 C 66.816406 36.851562 67.6875 38.097656 68.558594 39.34375 C 68.371094 39.492188 68.179688 39.644531 67.988281 39.796875 C 64.484375 36.027344 60.46875 33.09375 55.351562 31.953125 C 57.976562 33.648438 60.3125 35.605469 61.78125 38.425781 C 58.792969 36.238281 55.882812 34.023438 52.0625 33.5 C 52.914062 34.371094 53.765625 35.242188 54.613281 36.113281 C 51.859375 35.65625 49.523438 34.640625 47.078125 34.179688 C 44.726562 33.734375 42.265625 33.867188 39.851562 33.746094 L 39.820312 34.328125 L 46.367188 36.378906 C 46.320312 36.601562 46.273438 36.828125 46.226562 37.050781 C 40.742188 36.289062 35.355469 36.261719 30.078125 38.910156 C 32.328125 39.375 34.300781 39.78125 36.277344 40.191406 C 36.261719 40.417969 36.25 40.644531 36.234375 40.875 C 30.828125 40.761719 25.507812 41.097656 20.234375 43.738281 C 21.890625 43.984375 23.136719 44.167969 24.304688 44.339844 C 21.054688 46.101562 17.824219 47.851562 14.59375 49.601562 C 14.6875 49.769531 14.78125 49.9375 14.875 50.109375 L 18.851562 49.859375 C 10.15625 55.058594 3.78125 61.585938 1.753906 67.796875 C 5.140625 64.503906 8.085938 60.761719 12.796875 58.570312 C 11.417969 61.765625 10.238281 64.5 9.058594 67.234375 L 9.601562 67.550781 C 12.839844 63.730469 15.59375 59.394531 20.101562 56.921875 C 20.273438 57.058594 20.449219 57.195312 20.621094 57.328125 C 19.261719 59.707031 17.902344 62.089844 16.542969 64.46875 L 16.882812 64.8125 C 20.4375 62 23.988281 59.191406 27.542969 56.378906 C 27.679688 56.464844 27.8125 56.550781 27.941406 56.640625 C 26.351562 59.113281 24.757812 61.585938 23.164062 64.058594 C 23.257812 64.199219 23.351562 64.339844 23.445312 64.480469 C 27.621094 61.578125 31.796875 58.675781 36.429688 55.453125 C 34.75 58.132812 33.332031 60.390625 31.914062 62.648438 C 31.988281 62.738281 32.0625 62.828125 32.136719 62.917969 C 36.015625 60.628906 39.898438 58.339844 44.261719 55.765625 C 42.359375 58.53125 40.722656 60.90625 39.085938 63.28125 C 43.925781 60.074219 48.640625 56.78125 54.578125 55.578125 C 53.730469 57.160156 53.246094 58.632812 52.292969 59.675781 C 51.226562 60.84375 49.730469 61.625 48.421875 62.574219 L 48.730469 63.164062 C 53.890625 60.085938 59.433594 58.117188 65.460938 57.269531 C 64.015625 58.449219 62.574219 59.628906 61.136719 60.800781 C 62.039062 61.511719 62.726562 62.058594 63.164062 62.402344 C 61.042969 63.621094 59.074219 64.753906 56.867188 66.019531 C 57.660156 66.363281 57.996094 66.507812 58.644531 66.785156 C 57.855469 67.003906 57.445312 67.203125 57.027344 67.222656 C 55.078125 67.320312 54.371094 68.292969 54.71875 70.195312 C 54.84375 70.898438 54.75 71.640625 54.75 72.363281 C 54.753906 74.257812 54.75 76.152344 54.75 78.171875 C 50.214844 77.453125 52.703125 74.023438 51.554688 72.125 C 48.992188 72.648438 50.757812 74.984375 49.683594 76.371094 C 48.824219 76.035156 47.859375 75.660156 46.636719 75.183594 C 45.398438 76.660156 44.0625 78.257812 42.726562 79.851562 C 43.910156 79.59375 44.679688 78.953125 45.507812 78.394531 C 46.261719 77.882812 47.074219 77.457031 47.859375 76.992188 C 44.261719 80.941406 41.085938 84.957031 39.167969 90.347656 C 40.847656 88.949219 42.1875 87.832031 43.527344 86.71875 C 43.65625 86.84375 43.789062 86.96875 43.917969 87.09375 C 40.441406 91.175781 37.320312 95.460938 35.621094 100.574219 C 35.769531 100.707031 35.921875 100.839844 36.074219 100.96875 C 36.902344 100.101562 37.730469 99.230469 38.199219 98.742188 C 37.277344 101.671875 36.230469 105.003906 35.183594 108.335938 C 35.34375 108.382812 35.5 108.429688 35.660156 108.480469 C 36.304688 107.5625 36.953125 106.640625 37.597656 105.722656 C 37.140625 109.113281 36.449219 112.265625 35.847656 115.433594 C 35.695312 116.21875 35.429688 117.34375 36.984375 117.023438 C 36.472656 118.027344 35.53125 119.027344 35.53125 120.027344 C 35.53125 123.046875 35.898438 126.070312 36.121094 129.09375 C 36.824219 125.257812 37.335938 121.476562 37.777344 117.691406 C 37.8125 117.410156 37.375 117.070312 37.15625 116.757812 C 38.179688 115.71875 39.203125 114.683594 40.226562 113.644531 C 37.5 117.25 40.332031 120.292969 41.050781 123.546875 C 41.265625 120.585938 41.296875 117.644531 41.222656 114.707031 C 41.210938 114.308594 40.644531 113.929688 40.335938 113.539062 C 41.015625 112.140625 41.695312 110.742188 42.324219 109.453125 C 43.007812 109.539062 43.699219 109.625 44.390625 109.710938 C 43.15625 111.15625 43.097656 113.222656 44.304688 115.5625 C 44.722656 113.6875 45.140625 111.941406 45.457031 110.179688 C 45.488281 110.011719 44.917969 109.734375 44.625 109.511719 C 45.308594 107.503906 45.992188 105.5 46.546875 103.875 C 47.117188 104.269531 47.878906 104.792969 48.644531 105.320312 C 48.171875 107.238281 47.695312 109.15625 47.222656 111.074219 C 47.453125 111.132812 47.6875 111.191406 47.917969 111.25 C 48.425781 109.550781 48.972656 107.863281 49.402344 106.144531 C 49.46875 105.878906 49 105.480469 48.777344 105.144531 C 49.71875 102.363281 50.660156 99.585938 51.59375 96.820312 C 51.824219 98.25 52.183594 99.894531 52.339844 101.554688 C 52.34375 101.582031 52.351562 101.609375 52.355469 101.632812 C 52.78125 100.601562 109.25 76.71875 112.605469 79.988281 C 112.945312 79.46875 113.523438 79.101562 114.332031 79.101562 C 116.609375 79.101562 117.035156 81.96875 115.613281 83.046875 C 115.761719 83.207031 115.914062 83.367188 116.054688 83.53125 C 120.40625 88.464844 121.574219 94.910156 123.589844 100.984375 C 124.785156 100.664062 125.496094 100.347656 125.613281 100.050781 C 126.410156 103.140625 127.25 106.386719 128.085938 109.636719 C 128.273438 109.597656 128.460938 109.5625 128.648438 109.523438 C 128.96875 107.476562 129.292969 105.429688 129.613281 103.378906 C 129.847656 103.382812 130.078125 103.386719 130.308594 103.390625 C 130.664062 106.949219 130.570312 110.625 132.222656 113.839844 C 132.394531 113.792969 132.5625 113.742188 132.734375 113.695312 C 133.109375 112.183594 133.480469 110.671875 133.855469 109.160156 C 134.050781 109.179688 134.246094 109.203125 134.445312 109.226562 C 134.699219 110.554688 134.953125 111.882812 135.207031 113.210938 C 135.507812 114.820312 135.808594 116.433594 136.113281 118.042969 C 135.851562 118.34375 135.378906 118.636719 135.363281 118.957031 C 135.285156 120.476562 135.328125 122.007812 135.328125 123.53125 C 135.964844 121.773438 137.617188 120.183594 136.226562 118.160156 C 136.84375 117.515625 137.460938 116.871094 138.027344 116.277344 C 138.769531 118.09375 139.566406 120.042969 140.359375 121.992188 C 140.613281 121.496094 141.089844 120.984375 141.0625 120.5 C 140.945312 118.265625 140.824219 116.015625 140.4375 113.816406 C 139.972656 111.15625 139.238281 108.539062 138.621094 105.90625 C 138.722656 105.84375 138.824219 105.785156 138.921875 105.726562 C 139.597656 106.683594 140.273438 107.640625 140.949219 108.597656 C 141.105469 108.53125 141.261719 108.46875 141.417969 108.402344 C 140.324219 105.023438 139.234375 101.644531 138.0625 98.019531 C 138.996094 99.0625 139.820312 99.984375 140.644531 100.90625 C 139.15625 95.496094 136.101562 91.09375 132.511719 87.003906 C 132.660156 86.886719 132.8125 86.773438 132.960938 86.65625 C 134.316406 87.796875 135.671875 88.933594 137.324219 90.324219 C 135.507812 84.898438 132.117188 80.972656 128.378906 77.277344 L 128.78125 76.851562 C 130.515625 78.105469 132.246094 79.355469 133.964844 80.597656 C 132.210938 76.386719 128.429688 74.316406 124.960938 71.949219 C 123.683594 71.074219 120.722656 71.828125 119.304688 72.886719 C 118.714844 73.328125 118.820312 67.257812 119.851562 64.398438 C 116.929688 62.015625 114.007812 59.628906 111.085938 57.242188 C 111.207031 56.988281 111.328125 56.734375 111.449219 56.480469 C 117.027344 58.617188 122.601562 60.753906 128.632812 63.066406 C 126.230469 60.480469 124.09375 58.179688 121.621094 55.519531 C 127.777344 56.6875 132.367188 60 137.214844 62.945312 C 135.589844 60.578125 133.960938 58.21875 132.21875 55.683594 C 136.492188 58.226562 140.476562 60.601562 144.460938 62.972656 C 144.511719 62.867188 144.566406 62.765625 144.617188 62.660156 C 143.199219 60.382812 141.78125 58.105469 140.191406 55.546875 C 144.757812 58.699219 148.957031 61.601562 153.15625 64.5 C 153.226562 64.363281 153.296875 64.226562 153.367188 64.089844 C 151.777344 61.597656 150.191406 59.109375 148.601562 56.617188 C 148.730469 56.550781 148.863281 56.480469 148.992188 56.410156 L 159.691406 64.808594 C 159.785156 64.691406 159.871094 64.574219 159.960938 64.457031 C 158.613281 62.066406 157.265625 59.679688 155.917969 57.292969 C 156.121094 57.144531 156.324219 56.996094 156.527344 56.847656 C 161.035156 59.667969 164.050781 64.011719 167.714844 67.878906 C 166.441406 64.890625 165.171875 61.898438 163.898438 58.910156 C 164.101562 58.730469 164.296875 58.550781 164.496094 58.371094 Z M 164.496094 58.371094 "/>
<path style=" stroke:none;fill-rule:nonzero;fill:rgb(52.156863%,71.372549%,5.882353%);fill-opacity:1;" d="M 54 98.703125 C 54.019531 98.261719 54.066406 97.828125 54.15625 97.414062 C 54.097656 97.40625 54.03125 97.398438 53.976562 97.386719 C 53.964844 97.832031 53.972656 98.277344 53.980469 98.726562 C 53.984375 98.71875 53.992188 98.710938 54 98.703125 Z M 54 98.703125 "/>
<path style=" stroke:none;fill-rule:nonzero;fill:rgb(52.156863%,71.372549%,5.882353%);fill-opacity:1;" d="M 164.496094 58.371094 C 167.96875 61.4375 171.441406 64.503906 174.941406 67.59375 C 171.128906 59.839844 165.398438 53.972656 157.746094 49.773438 C 159.085938 49.898438 160.425781 50.027344 161.765625 50.152344 C 161.84375 49.96875 161.917969 49.785156 161.996094 49.597656 C 158.746094 47.855469 155.492188 46.113281 152.136719 44.316406 C 153.40625 44.148438 154.65625 43.984375 156.351562 43.761719 C 151.039062 41.105469 145.734375 40.742188 140.320312 40.886719 C 140.3125 40.652344 140.300781 40.421875 140.289062 40.1875 C 142.261719 39.773438 144.230469 39.359375 146.410156 38.902344 C 141.078125 36.164062 135.546875 36.351562 129.941406 37.082031 C 129.921875 36.886719 129.898438 36.695312 129.878906 36.5 C 132.183594 35.761719 134.488281 35.027344 137.050781 34.210938 C 131.703125 32.863281 127.117188 34.578125 122.464844 36.25 C 123.335938 35.355469 124.277344 34.621094 125.289062 34.007812 C 126.257812 33.417969 127.304688 32.953125 128.617188 32.277344 C 122.730469 32.59375 118.472656 35.46875 114.4375 39.015625 C 115.207031 37.433594 116.15625 36.109375 117.308594 34.996094 C 118.464844 33.878906 119.824219 32.972656 121.320312 31.796875 C 116.019531 33.101562 112.054688 36.089844 108.503906 39.777344 C 108.335938 39.613281 108.171875 39.449219 108.003906 39.285156 C 108.863281 38.058594 109.726562 36.832031 110.984375 35.042969 C 108.863281 36.328125 107.257812 37.246094 105.714844 38.257812 C 104.203125 39.246094 103.132812 41.113281 100.984375 40.785156 C 100.863281 40.5625 100.742188 40.34375 100.621094 40.121094 C 105.03125 37.65625 109.445312 35.191406 114.019531 32.636719 L 107.109375 32.636719 C 107.03125 32.433594 106.949219 32.230469 106.871094 32.023438 C 108.933594 30.972656 110.941406 29.789062 113.074219 28.910156 C 115.191406 28.042969 117.4375 27.488281 119.804688 26.738281 C 117.578125 26.328125 115.574219 25.964844 113.175781 25.523438 C 117.019531 24.167969 120.421875 22.96875 124.3125 21.597656 C 121.90625 21.003906 120.097656 20.558594 118.007812 20.042969 C 122.273438 18.875 126.082031 17.832031 130.429688 16.644531 C 127.726562 15.953125 125.773438 15.453125 123.816406 14.953125 C 123.871094 14.828125 123.925781 14.703125 123.980469 14.578125 C 127.472656 13.871094 130.964844 13.164062 134.914062 12.359375 C 132.375 11.601562 130.425781 5.011719 128.476562 4.429688 C 128.527344 4.191406 128.578125 9.960938 128.625 9.722656 C 132.542969 8.496094 136.5625 9.070312 140.683594 8.988281 C 138.5 8.007812 136.316406 7.03125 134.132812 6.054688 C 134.128906 5.808594 134.121094 5.5625 134.117188 5.316406 C 137.757812 4.84375 141.398438 4.371094 145.066406 3.898438 C 138.644531 1.773438 132.316406 2.175781 125.90625 4.613281 C 126.78125 3.8125 127.65625 3.011719 128.535156 2.210938 L 128.316406 1.742188 C 125.585938 2.816406 122.855469 3.890625 119.867188 5.0625 C 120.699219 3.957031 121.390625 3.035156 122.082031 2.117188 C 121.90625 1.9375 121.726562 1.757812 121.550781 1.578125 C 117.941406 4.601562 114.335938 7.628906 110.410156 10.921875 C 111.542969 9.097656 112.515625 7.535156 113.671875 5.675781 C 108.871094 7.917969 105.933594 11.621094 103.023438 15.355469 C 102.878906 15.246094 102.738281 15.140625 102.597656 15.03125 C 103.632812 13.128906 104.667969 11.226562 105.902344 8.964844 C 102.011719 12.019531 99.976562 15.914062 98.179688 19.980469 C 97.996094 19.886719 97.8125 19.792969 97.632812 19.703125 C 98.167969 17.960938 98.703125 16.222656 99.238281 14.480469 C 99.03125 14.402344 98.820312 14.324219 98.613281 14.246094 C 97.0625 18.28125 95.515625 22.316406 93.964844 26.355469 C 93.863281 26.351562 93.761719 26.347656 93.660156 26.34375 C 93.953125 24.007812 94.242188 21.675781 94.53125 19.339844 C 94.351562 19.292969 94.167969 19.246094 93.984375 19.199219 C 92.84375 23.480469 91.707031 27.761719 90.433594 32.550781 C 90.328125 30.773438 90.25 29.492188 90.144531 27.722656 C 89.453125 29.695312 88.925781 31.191406 88.242188 33.128906 C 87.5625 31.152344 87.0625 29.691406 86.402344 27.753906 C 86.269531 29.554688 86.179688 30.8125 86.089844 32.070312 C 85.371094 30.511719 85.222656 28.949219 84.914062 27.417969 C 84.613281 25.933594 84.226562 24.453125 83.722656 23.03125 C 83.230469 21.636719 82.539062 20.308594 81.855469 18.777344 C 82.222656 21.488281 82.554688 23.929688 82.886719 26.371094 C 82.683594 26.410156 82.480469 26.449219 82.277344 26.484375 C 81.667969 24.375 81.195312 22.214844 80.414062 20.171875 C 79.652344 18.1875 78.570312 16.324219 77.632812 14.410156 L 77.332031 14.578125 C 77.855469 16.316406 78.378906 18.058594 78.902344 19.796875 C 78.730469 19.875 78.554688 19.949219 78.378906 20.027344 C 76.5 15.925781 74.546875 11.878906 70.65625 9.046875 C 71.8125 11.183594 72.875 13.148438 73.9375 15.113281 C 73.789062 15.214844 73.640625 15.3125 73.488281 15.414062 C 70.652344 11.585938 67.648438 7.949219 62.847656 5.667969 C 63.992188 7.507812 64.914062 8.984375 65.835938 10.464844 C 65.679688 10.570312 65.519531 10.671875 65.363281 10.777344 C 62.265625 7.246094 58.9375 4.011719 54.222656 1.820312 C 55.148438 3.085938 55.816406 4 56.539062 4.984375 C 53.507812 3.832031 50.71875 2.769531 47.925781 1.707031 C 47.882812 1.835938 47.839844 1.964844 47.796875 2.089844 C 48.695312 2.890625 49.589844 3.691406 50.578125 4.570312 C 47.230469 3.882812 44.121094 3.039062 40.953125 2.640625 C 37.222656 2.175781 33.300781 3.023438 31.5625 4.226562 C 35.242188 4.230469 38.9375 4.15625 42.882812 6.015625 C 41.191406 6.65625 40.039062 7.023438 38.945312 7.523438 C 37.921875 7.988281 36.957031 8.589844 35.488281 9.390625 C 40.105469 9.082031 44.089844 8.410156 47.953125 9.820312 L 48.058594 10.484375 C 46.109375 11.046875 44.15625 11.609375 41.546875 12.363281 C 45.660156 13.191406 49.160156 13.898438 52.65625 14.605469 L 52.792969 15.015625 C 50.796875 15.492188 48.804688 15.96875 46.808594 16.441406 C 46.769531 16.570312 46.730469 16.699219 46.691406 16.828125 C 50.460938 17.851562 54.234375 18.878906 58.503906 20.039062 C 56.386719 20.574219 54.625 21.019531 52.226562 21.625 C 56.238281 23.03125 59.609375 24.214844 63.398438 25.539062 C 60.96875 25.976562 58.933594 26.34375 56.75 26.738281 C 59.195312 27.519531 61.511719 28.105469 63.699219 29.007812 C 65.816406 29.886719 67.796875 31.09375 69.839844 32.15625 C 69.757812 32.351562 69.679688 32.542969 69.597656 32.738281 L 61.960938 32.738281 C 67.183594 35.074219 71.78125 37.199219 75.683594 40.464844 C 75.539062 40.710938 75.394531 40.953125 75.25 41.199219 C 72.199219 39.242188 69.152344 37.289062 66.101562 35.332031 C 66.050781 35.421875 66 35.515625 65.945312 35.605469 C 66.816406 36.851562 67.6875 38.097656 68.558594 39.34375 C 68.371094 39.492188 68.179688 39.644531 67.988281 39.796875 C 64.484375 36.027344 60.46875 33.09375 55.351562 31.953125 C 57.976562 33.648438 60.3125 35.605469 61.78125 38.425781 C 58.792969 36.238281 55.882812 34.023438 52.0625 33.5 C 52.914062 34.371094 53.765625 35.242188 54.613281 36.113281 C 51.859375 35.65625 49.523438 34.640625 47.078125 34.179688 C 44.726562 33.734375 42.265625 33.867188 39.851562 33.746094 L 39.820312 34.328125 L 46.367188 36.378906 C 46.320312 36.601562 46.273438 36.828125 46.226562 37.050781 C 40.742188 36.289062 35.355469 36.261719 30.078125 38.910156 C 32.328125 39.375 34.300781 39.78125 36.277344 40.191406 C 36.261719 40.417969 36.25 40.644531 36.234375 40.875 C 30.828125 40.761719 25.507812 41.097656 20.234375 43.738281 C 21.890625 43.984375 23.136719 44.167969 24.304688 44.339844 C 21.054688 46.101562 17.824219 47.851562 14.59375 49.601562 C 14.6875 49.769531 14.78125 49.9375 14.875 50.109375 L 18.851562 49.859375 C 10.15625 55.058594 3.78125 61.585938 1.753906 67.796875 C 5.140625 64.503906 8.085938 60.761719 12.796875 58.570312 C 11.417969 61.765625 10.238281 64.5 9.058594 67.234375 L 9.601562 67.550781 C 12.839844 63.730469 15.59375 59.394531 20.101562 56.921875 C 20.273438 57.058594 20.449219 57.195312 20.621094 57.328125 C 19.261719 59.707031 17.902344 62.089844 16.542969 64.46875 L 16.882812 64.8125 C 20.4375 62 23.988281 59.191406 27.542969 56.378906 C 27.679688 56.464844 27.8125 56.550781 27.941406 56.640625 C 26.351562 59.113281 24.757812 61.585938 23.164062 64.058594 C 23.257812 64.199219 23.351562 64.339844 23.445312 64.480469 C 27.621094 61.578125 31.796875 58.675781 36.429688 55.453125 C 34.75 58.132812 33.332031 60.390625 31.914062 62.648438 C 31.988281 62.738281 32.0625 62.828125 32.136719 62.917969 C 36.015625 60.628906 39.898438 58.339844 44.261719 55.765625 C 42.359375 58.53125 40.722656 60.90625 39.085938 63.28125 C 43.925781 60.074219 48.640625 56.78125 54.578125 55.578125 C 53.730469 57.160156 53.246094 58.632812 52.292969 59.675781 C 51.226562 60.84375 49.730469 61.625 48.421875 62.574219 L 48.730469 63.164062 C 53.890625 60.085938 59.433594 58.117188 65.460938 57.269531 C 64.015625 58.449219 62.574219 59.628906 61.136719 60.800781 C 62.039062 61.511719 62.726562 62.058594 63.164062 62.402344 C 61.042969 63.621094 59.074219 64.753906 56.867188 66.019531 C 57.660156 66.363281 57.996094 66.507812 58.644531 66.785156 C 57.855469 67.003906 57.445312 67.203125 57.027344 67.222656 C 55.078125 67.320312 54.371094 68.292969 54.71875 70.195312 C 54.84375 70.898438 54.75 71.640625 54.75 72.363281 C 54.753906 74.257812 54.75 76.152344 54.75 78.171875 C 50.214844 77.453125 52.703125 74.023438 51.554688 72.125 C 48.992188 72.648438 50.757812 74.984375 49.683594 76.371094 C 48.824219 76.035156 47.859375 75.660156 46.636719 75.183594 C 45.398438 76.660156 44.0625 78.257812 42.726562 79.851562 C 43.910156 79.59375 44.679688 78.953125 45.507812 78.394531 C 46.261719 77.882812 47.074219 77.457031 47.859375 76.992188 C 44.261719 80.941406 41.085938 84.957031 39.167969 90.347656 C 40.847656 88.949219 42.1875 87.832031 43.527344 86.71875 C 43.65625 86.84375 43.789062 86.96875 43.917969 87.09375 C 40.441406 91.175781 37.320312 95.460938 35.621094 100.574219 C 35.769531 100.707031 35.921875 100.839844 36.074219 100.96875 C 36.902344 100.101562 37.730469 99.230469 38.199219 98.742188 C 37.277344 101.671875 36.230469 105.003906 35.183594 108.335938 C 35.34375 108.382812 35.5 108.429688 35.660156 108.480469 C 36.304688 107.5625 36.953125 106.640625 37.597656 105.722656 C 37.140625 109.113281 36.449219 112.265625 35.847656 115.433594 C 35.695312 116.21875 35.429688 117.34375 36.984375 117.023438 C 37.042969 116.933594 37.097656 116.84375 37.15625 116.753906 C 38.179688 115.71875 39.203125 114.683594 40.226562 113.644531 C 40.261719 113.613281 40.296875 113.582031 40.335938 113.539062 C 41.015625 112.140625 41.695312 110.742188 42.324219 109.457031 C 43.007812 109.539062 43.699219 109.625 44.390625 109.710938 C 44.46875 109.644531 44.546875 109.578125 44.625 109.511719 C 45.308594 107.503906 45.992188 105.5 46.546875 103.878906 C 47.117188 104.269531 47.878906 104.792969 48.644531 105.320312 C 48.6875 105.269531 48.730469 105.210938 48.777344 105.144531 C 49.71875 102.363281 50.65625 99.585938 51.59375 96.820312 C 51.617188 96.972656 52.472656 97.167969 53.972656 97.386719 C 54.144531 89.859375 56.914062 82.96875 61.132812 76.589844 C 63.976562 72.292969 67.457031 68.292969 71.214844 64.753906 C 77.925781 58.425781 85.878906 54.289062 95.300781 53.722656 C 102.269531 53.300781 108.03125 55.667969 112.238281 61.476562 C 112.707031 62.121094 113.863281 62.359375 114.753906 62.585938 C 115.609375 62.800781 116.949219 61.902344 117.078125 63.605469 C 117.210938 65.355469 115.816406 64.976562 114.804688 65.09375 C 114.671875 65.109375 114.550781 65.207031 114.292969 65.328125 C 115.019531 68.011719 112.628906 71.703125 108.449219 75.75 C 109.75 77.222656 111.1875 78.609375 112.605469 79.988281 C 112.945312 79.46875 113.523438 79.101562 114.332031 79.101562 C 116.609375 79.101562 117.035156 81.96875 115.613281 83.046875 C 115.761719 83.207031 115.914062 83.367188 116.054688 83.53125 C 120.351562 88.402344 121.542969 94.742188 123.511719 100.75 C 124.753906 100.582031 125.492188 100.351562 125.613281 100.054688 C 126.410156 103.140625 127.25 106.386719 128.089844 109.636719 C 128.273438 109.597656 128.460938 109.5625 128.648438 109.523438 C 128.972656 107.476562 129.292969 105.429688 129.617188 103.382812 C 129.847656 103.382812 130.078125 103.386719 130.308594 103.390625 C 130.664062 106.949219 130.574219 110.625 132.222656 113.839844 C 132.394531 113.792969 132.5625 113.742188 132.734375 113.695312 C 133.109375 112.183594 133.484375 110.671875 133.855469 109.160156 C 134.054688 109.179688 134.25 109.203125 134.445312 109.226562 C 134.699219 110.554688 134.953125 111.882812 135.207031 113.210938 C 135.511719 114.820312 135.8125 116.433594 136.113281 118.042969 C 136.15625 118.089844 136.191406 118.128906 136.226562 118.160156 C 136.84375 117.515625 137.460938 116.871094 138.03125 116.277344 C 138.769531 118.097656 139.566406 120.042969 140.359375 121.996094 C 140.613281 121.496094 141.089844 120.988281 141.0625 120.503906 C 140.945312 118.269531 140.824219 116.015625 140.441406 113.820312 C 139.972656 111.15625 139.242188 108.539062 138.625 105.90625 C 138.722656 105.847656 138.824219 105.789062 138.925781 105.726562 C 139.597656 106.683594 140.273438 107.640625 140.949219 108.597656 C 141.105469 108.535156 141.261719 108.46875 141.417969 108.402344 C 140.324219 105.023438 139.234375 101.644531 138.066406 98.019531 C 139 99.066406 139.820312 99.984375 140.644531 100.90625 C 139.15625 95.5 136.101562 91.097656 132.511719 87.003906 C 132.660156 86.890625 132.8125 86.773438 132.960938 86.65625 C 134.316406 87.796875 135.671875 88.9375 137.328125 90.324219 C 135.507812 84.898438 132.117188 80.972656 128.378906 77.277344 L 128.78125 76.851562 C 130.515625 78.105469 132.246094 79.359375 133.964844 80.597656 C 132.210938 76.386719 128.429688 74.316406 124.960938 71.949219 C 123.683594 71.074219 120.726562 71.828125 119.304688 72.886719 C 118.71875 73.328125 117.777344 73.296875 116.550781 73.585938 C 117.777344 70.171875 118.824219 67.257812 119.851562 64.398438 C 116.929688 62.015625 114.007812 59.628906 111.085938 57.242188 C 111.207031 56.988281 111.328125 56.734375 111.449219 56.480469 C 117.027344 58.617188 122.601562 60.753906 128.632812 63.066406 C 126.230469 60.480469 124.09375 58.179688 121.621094 55.523438 C 127.777344 56.6875 132.367188 60 137.214844 62.945312 C 135.589844 60.582031 133.960938 58.21875 132.21875 55.6875 C 136.492188 58.230469 140.476562 60.601562 144.460938 62.972656 C 144.511719 62.871094 144.566406 62.765625 144.617188 62.660156 C 143.199219 60.382812 141.78125 58.105469 140.191406 55.546875 C 144.757812 58.703125 148.957031 61.601562 153.15625 64.5 C 153.226562 64.363281 153.296875 64.226562 153.367188 64.089844 C 151.777344 61.597656 150.191406 59.109375 148.601562 56.621094 C 148.730469 56.550781 148.863281 56.480469 148.992188 56.410156 L 159.691406 64.808594 C 159.785156 64.691406 159.871094 64.574219 159.960938 64.457031 C 158.613281 62.070312 157.265625 59.679688 155.917969 57.292969 C 156.121094 57.144531 156.324219 56.996094 156.527344 56.847656 C 161.035156 59.667969 164.050781 64.011719 167.714844 67.878906 C 166.441406 64.890625 165.171875 61.902344 163.898438 58.914062 C 164.101562 58.730469 164.296875 58.550781 164.496094 58.371094 Z M 47.707031 90.042969 C 50.339844 84.421875 54.183594 79.761719 58.785156 75.699219 C 56.710938 81.730469 50.738281 84.757812 47.707031 90.042969 Z M 57.253906 74.875 C 57.03125 74.738281 56.808594 74.605469 56.585938 74.46875 C 57.03125 73.636719 57.277344 72.527344 57.964844 72.023438 C 59.417969 70.964844 60.273438 69.871094 60.175781 67.941406 C 60.136719 67.136719 60.972656 66.285156 61.664062 64.96875 C 63.339844 70.289062 62.050781 72.808594 57.253906 74.875 Z M 75.800781 56.125 C 65.75 51.066406 55.289062 47.300781 43.894531 46.84375 C 41.414062 46.746094 38.925781 46.828125 36.476562 46.734375 C 52.457031 42.867188 66.894531 47.097656 80.824219 55.320312 C 79.125 57.027344 77.714844 57.089844 75.800781 56.125 Z M 86.324219 53.417969 C 85.777344 53.027344 84.945312 52.757812 84.714844 52.230469 C 82.582031 47.335938 80.734375 42.316406 78.449219 37.5 C 74.539062 29.253906 69.847656 21.496094 63.113281 15.15625 C 67.652344 17.941406 71.160156 21.757812 74.273438 25.941406 C 80.03125 33.671875 83.875 42.351562 86.578125 51.558594 C 86.738281 52.109375 86.421875 52.796875 86.324219 53.417969 Z M 93.5 48.292969 C 93.058594 49.433594 92.703125 50.636719 92.058594 51.652344 C 91.765625 52.117188 90.859375 52.195312 90.234375 52.449219 C 90.085938 52.285156 89.9375 52.121094 89.785156 51.957031 C 94.191406 37.488281 100.761719 24.390625 113.320312 14.808594 C 113.386719 15.230469 113.46875 15.421875 113.414062 15.472656 C 103.691406 24.539062 98.167969 36.15625 93.5 48.292969 Z M 125.683594 84.339844 C 126.839844 86.167969 128 87.996094 129.15625 89.828125 C 128.972656 89.945312 128.789062 90.0625 128.605469 90.175781 C 127.382812 88.390625 126.164062 86.605469 124.941406 84.820312 C 125.191406 84.660156 125.4375 84.5 125.683594 84.339844 Z M 131.832031 46.90625 C 123.804688 47.214844 116.179688 49.375 108.835938 52.457031 C 106.285156 53.527344 104.078125 53.65625 101.582031 52.183594 C 109.136719 46.300781 131.414062 43.246094 139.867188 46.890625 C 137.140625 46.890625 134.484375 46.804688 131.832031 46.90625 Z M 131.832031 46.90625 "/>
<path style=" stroke:none;fill-rule:evenodd;fill:rgb(52.156863%,71.372549%,5.882353%);fill-opacity:1;" d="M 40.230469 113.644531 C 40.261719 113.613281 40.300781 113.578125 40.339844 113.539062 C 40.648438 113.929688 41.214844 114.308594 41.226562 114.707031 C 41.300781 117.644531 41.265625 120.585938 41.050781 123.546875 C 40.335938 120.289062 37.5 117.25 40.230469 113.644531 Z M 40.230469 113.644531 "/>
<path style=" stroke:none;fill-rule:evenodd;fill:rgb(52.156863%,71.372549%,5.882353%);fill-opacity:1;" d="M 36.988281 117.023438 C 37.046875 116.933594 37.101562 116.84375 37.160156 116.753906 C 37.378906 117.066406 37.816406 117.40625 37.78125 117.691406 C 37.339844 121.476562 36.828125 125.257812 36.125 129.09375 C 35.902344 126.070312 35.535156 123.046875 35.535156 120.027344 C 35.53125 119.027344 36.476562 118.023438 36.988281 117.023438 Z M 36.988281 117.023438 "/>
<path style=" stroke:none;fill-rule:evenodd;fill:rgb(52.156863%,71.372549%,5.882353%);fill-opacity:1;" d="M 44.394531 109.710938 C 44.472656 109.640625 44.550781 109.574219 44.628906 109.507812 C 44.917969 109.734375 45.492188 110.011719 45.460938 110.179688 C 45.140625 111.941406 44.726562 113.6875 44.308594 115.5625 C 43.101562 113.222656 43.160156 111.15625 44.394531 109.710938 Z M 44.394531 109.710938 "/>
<path style=" stroke:none;fill-rule:evenodd;fill:rgb(52.156863%,71.372549%,5.882353%);fill-opacity:1;" d="M 48.648438 105.320312 C 48.691406 105.269531 48.734375 105.210938 48.78125 105.144531 C 49.003906 105.480469 49.472656 105.878906 49.40625 106.144531 C 48.976562 107.863281 48.429688 109.550781 47.917969 111.25 C 47.6875 111.191406 47.457031 111.132812 47.226562 111.074219 C 47.699219 109.15625 48.171875 107.238281 48.648438 105.320312 Z M 48.648438 105.320312 "/>
<path style=" stroke:none;fill-rule:evenodd;fill:rgb(52.156863%,71.372549%,5.882353%);fill-opacity:1;" d="M 136.117188 118.042969 C 136.15625 118.089844 136.195312 118.128906 136.230469 118.160156 C 137.617188 120.183594 135.96875 121.773438 135.332031 123.53125 C 135.332031 122.007812 135.285156 120.476562 135.367188 118.957031 C 135.382812 118.640625 135.855469 118.34375 136.117188 118.042969 Z M 136.117188 118.042969 "/>
<path style=" stroke:none;fill-rule:evenodd;fill:rgb(52.156863%,71.372549%,5.882353%);fill-opacity:1;" d="M 140.441406 122.1875 C 140.441406 122.1875 140.355469 122.007812 140.355469 122.007812 C 140.464844 124.308594 140.570312 126.613281 140.675781 128.914062 C 140.453125 128.925781 140.226562 128.9375 140 128.953125 C 139.871094 126.988281 139.707031 125.023438 139.652344 123.054688 C 139.644531 122.773438 140.164062 122.476562 140.441406 122.1875 Z M 140.441406 122.1875 "/>
<path style=" stroke:none;fill-rule:evenodd;fill:rgb(52.156863%,71.372549%,5.882353%);fill-opacity:1;" d="M 122.066406 67.765625 C 123.097656 68.585938 124.125 69.402344 125.15625 70.21875 C 124.953125 70.480469 124.75 70.742188 124.546875 71.003906 C 123.542969 70.183594 122.542969 69.359375 121.542969 68.535156 C 121.71875 68.277344 121.890625 68.023438 122.066406 67.765625 Z M 122.066406 67.765625 "/>
<path style=" stroke:none;fill-rule:evenodd;fill:rgb(100%,100%,100%);fill-opacity:1;" d="M 80.824219 55.320312 C 79.125 57.027344 77.714844 57.089844 75.800781 56.125 C 65.75 51.066406 55.289062 47.300781 43.894531 46.84375 C 41.414062 46.746094 38.925781 46.828125 36.476562 46.734375 C 52.457031 42.867188 66.894531 47.097656 80.824219 55.320312 Z M 80.824219 55.320312 "/>
<path style=" stroke:none;fill-rule:evenodd;fill:rgb(100%,100%,100%);fill-opacity:1;" d="M 101.582031 52.183594 C 98.582031 51.1875 131.414062 43.246094 139.867188 46.890625 C 137.140625 46.890625 134.484375 46.808594 131.832031 46.90625 C 123.804688 47.214844 116.179688 49.375 108.835938 52.457031 C 106.285156 53.527344 104.585938 53.175781 101.582031 52.183594 Z M 101.582031 52.183594 "/>
<path style=" stroke:none;fill-rule:evenodd;fill:rgb(100%,100%,100%);fill-opacity:1;" d="M 63.113281 15.15625 C 67.652344 17.941406 71.160156 21.757812 74.273438 25.941406 C 80.03125 33.671875 83.875 42.351562 86.578125 51.558594 C 86.738281 52.109375 86.421875 52.796875 86.324219 53.417969 C 85.773438 53.027344 84.945312 52.757812 84.714844 52.230469 C 82.582031 47.335938 80.734375 42.316406 78.449219 37.5 C 74.539062 29.253906 69.847656 21.496094 63.113281 15.15625 Z M 63.113281 15.15625 "/>
<path style=" stroke:none;fill-rule:evenodd;fill:rgb(100%,100%,100%);fill-opacity:1;" d="M 89.789062 51.957031 C 94.191406 37.488281 100.761719 24.390625 113.320312 14.808594 C 113.386719 15.230469 113.46875 15.421875 113.417969 15.472656 C 103.691406 24.539062 98.167969 36.15625 93.5 48.292969 C 93.058594 49.433594 92.703125 50.640625 92.058594 51.65625 C 91.765625 52.117188 90.859375 52.195312 90.234375 52.449219 C 90.085938 52.285156 89.9375 52.121094 89.789062 51.957031 Z M 89.789062 51.957031 "/>
<path style=" stroke:none;fill-rule:evenodd;fill:rgb(52.156863%,71.372549%,5.882353%);fill-opacity:1;" d="M 56.585938 74.46875 C 57.03125 73.636719 57.277344 72.527344 57.964844 72.023438 C 59.417969 70.964844 60.273438 69.871094 60.175781 67.941406 C 60.136719 67.136719 60.972656 66.285156 61.664062 64.96875 C 63.339844 70.292969 62.050781 72.808594 57.253906 74.875 C 57.03125 74.738281 56.808594 74.605469 56.585938 74.46875 Z M 56.585938 74.46875 "/>
<path style=" stroke:none;fill-rule:evenodd;fill:rgb(100%,100%,100%);fill-opacity:1;" d="M 47.707031 90.042969 C 50.339844 84.421875 54.183594 79.761719 58.785156 75.699219 C 56.710938 81.730469 50.738281 84.757812 47.707031 90.042969 Z M 47.707031 90.042969 "/>
<path style=" stroke:none;fill-rule:evenodd;fill:rgb(52.156863%,71.372549%,5.882353%);fill-opacity:1;" d="M 125.683594 84.339844 C 126.839844 86.167969 128 87.996094 129.15625 89.828125 C 128.972656 89.945312 128.789062 90.0625 128.605469 90.175781 C 127.382812 88.390625 126.164062 86.605469 124.941406 84.820312 C 125.191406 84.660156 125.4375 84.5 125.683594 84.339844 Z M 125.683594 84.339844 "/>
<path style=" stroke:none;fill-rule:evenodd;fill:rgb(100%,100%,100%);fill-opacity:1;" d="M 90.078125 56.457031 C 90.078125 56.457031 92.808594 51.207031 100.128906 56.457031 C 107.453125 61.707031 94.132812 57.859375 94.132812 57.859375 "/>
<path style=" stroke:none;fill-rule:evenodd;fill:rgb(37.647059%,22.352941%,7.45098%);fill-opacity:1;" d="M 139.21875 54.515625 C 139.21875 54.515625 152.535156 57.152344 160.578125 75.191406 C 168.625 93.226562 165.710938 109.464844 161.828125 116.679688 C 157.941406 123.894531 136.160156 151.816406 97.882812 126.390625 C 64.453125 104.191406 106.898438 46.328125 139.21875 54.515625 Z M 139.21875 54.515625 "/>
<path style=" stroke:none;fill-rule:evenodd;fill:rgb(100%,100%,100%);fill-opacity:1;" d="M 142.09375 109.058594 C 127.558594 125.832031 106.5625 131.4375 95.199219 121.582031 C 83.835938 111.726562 86.40625 90.140625 100.941406 73.371094 C 115.476562 56.597656 136.46875 50.992188 147.832031 60.847656 C 159.195312 70.703125 156.625 92.289062 142.09375 109.058594 Z M 142.09375 109.058594 "/>
<path style=" stroke:none;fill-rule:evenodd;fill:rgb(86.666667%,87.45098%,83.137255%);fill-opacity:1;" d="M 134.53125 100.859375 C 144.015625 89.175781 145.511719 74.675781 137.871094 68.472656 C 130.234375 62.269531 116.355469 66.710938 106.871094 78.394531 C 97.390625 90.078125 95.894531 104.578125 103.53125 110.78125 C 111.171875 116.984375 125.050781 112.542969 134.53125 100.859375 Z M 134.53125 100.859375 "/>
<path style=" stroke:none;fill-rule:evenodd;fill:rgb(70.588235%,72.941176%,67.45098%);fill-opacity:1;" d="M 103.015625 110.992188 C 103.015625 110.992188 98.160156 97.667969 110.921875 83.792969 C 123.683594 69.917969 135.613281 68.945312 141.296875 73.246094 C 141.296875 73.246094 135.847656 56.488281 114.667969 71.859375 C 93.445312 87.261719 98.300781 110.992188 103.015625 110.992188 Z M 103.015625 110.992188 "/>
<path style=" stroke:none;fill-rule:evenodd;fill:rgb(37.647059%,22.352941%,7.45098%);fill-opacity:1;" d="M 45.617188 41.710938 C 45.617188 41.710938 30.671875 44.636719 21.640625 64.652344 C 12.609375 84.671875 15.878906 102.6875 20.238281 110.691406 C 24.597656 118.699219 49.046875 149.683594 92.015625 121.472656 C 129.539062 96.835938 81.894531 32.625 45.617188 41.710938 Z M 45.617188 41.710938 "/>
<path style=" stroke:none;fill-rule:evenodd;fill:rgb(100%,100%,100%);fill-opacity:1;" d="M 42.390625 102.238281 C 58.707031 120.847656 82.273438 127.070312 95.03125 116.132812 C 107.785156 105.199219 104.898438 81.242188 88.585938 62.636719 C 72.269531 44.023438 48.703125 37.804688 35.949219 48.738281 C 23.195312 59.675781 26.078125 83.625 42.390625 102.238281 Z M 42.390625 102.238281 "/>
<path style=" stroke:none;fill-rule:evenodd;fill:rgb(86.666667%,87.45098%,83.137255%);fill-opacity:1;" d="M 50.878906 93.980469 C 61.519531 106.945312 77.101562 111.875 85.679688 104.988281 C 94.25 98.105469 92.574219 82.011719 81.929688 69.046875 C 71.285156 56.082031 55.703125 51.152344 47.128906 58.039062 C 38.558594 64.921875 40.234375 81.015625 50.878906 93.980469 Z M 50.878906 93.980469 "/>
<path style=" stroke:none;fill-rule:evenodd;fill:rgb(70.588235%,72.941176%,67.45098%);fill-opacity:1;" d="M 86.253906 104.378906 C 86.253906 104.378906 91.703125 89.597656 77.378906 74.199219 C 63.054688 58.800781 49.664062 57.726562 43.28125 62.5 C 43.28125 62.5 49.398438 43.898438 73.175781 60.957031 C 97 78.050781 91.550781 104.378906 86.253906 104.378906 Z M 86.253906 104.378906 "/>
</g>
</svg>
